Coordinates
version=1
nRows=17
nColumns=40
inDegrees=yes

Units are S.I. units (second, meters, Newtons, ...)
Angles are in degrees.

endheader
time	pelvis_tilt	pelvis_list	pelvis_rotation	pelvis_tx	pelvis_ty	pelvis_tz	hip_flexion_r	hip_adduction_r	hip_rotation_r	knee_angle_r	knee_angle_r_beta	ankle_angle_r	subtalar_angle_r	mtp_angle_r	hip_flexion_l	hip_adduction_l	hip_rotation_l	knee_angle_l	knee_angle_l_beta	ankle_angle_l	subtalar_angle_l	mtp_angle_l	lumbar_extension	lumbar_bending	lumbar_rotation	arm_flex_r	arm_add_r	arm_rot_r	elbow_flex_r	pro_sup_r	wrist_flex_r	wrist_dev_r	arm_flex_l	arm_add_l	arm_rot_l	elbow_flex_l	pro_sup_l	wrist_flex_l	wrist_dev_l
     52.34000000	     -3.25129977	     -5.79806119	      3.10946798	      1.08825748	      0.93187682	      0.50403430	     11.10444625	      3.18051743	    -19.91479652	     14.72824847	     14.72824847	      8.87200987	      0.93257361	     -6.49365806	     29.50705725	    -14.25722035	     -0.11222336	     67.24601372	     67.24601372	      9.01386852	    -18.43194658	     11.40352072	     -9.92453227	      8.66356990	      4.74464157	     18.74572931	    -14.48841064	     -6.67315205	     33.88908002	     45.68993744	      0.00000000	      0.00000000	      5.35398977	     -7.77690039	     -1.31871544	     42.74149169	     45.56292637	      0.00000000	      0.00000000
     52.35107143	     -3.39246595	     -5.76816227	      3.28835123	      1.08674268	      0.93210857	      0.50440507	     10.39141050	      3.31714359	    -19.98184040	     14.10635477	     14.10635477	      9.07097595	      1.12804891	     -6.57012575	     31.06204146	    -13.96678515	      0.18636176	     65.67442949	     65.67442949	      9.11922919	    -18.42316516	     11.51941709	     -9.91313608	      8.48034739	      4.46675379	     21.31251185	    -14.42049883	     -6.62341547	     35.39401439	     45.64922450	      0.00000000	      0.00000000	      3.74608142	     -7.77079230	     -1.01914117	     41.02241520	     45.51146910	      0.00000000	      0.00000000
     52.36214286	     -3.45952609	     -5.76124461	      3.46565879	      1.08532507	      0.93237312	      0.50476582	      9.54015503	      3.51963907	    -19.99018982	     13.35090620	     13.35090620	      9.22781290	      1.27413521	     -6.60981374	     32.34738407	    -13.70055942	      0.43581591	     63.83552413	     63.83552413	      9.11816684	    -18.41322390	     11.66912147	    -10.00062525	      8.34137105	      4.28626019	     23.75708758	    -14.40666255	     -6.48156157	     37.12720272	     45.59300964	      0.00000000	      0.00000000	      2.30191958	     -7.71654250	     -0.67916054	     39.13222083	     45.45727048	      0.00000000	      0.00000000
     52.37321429	     -3.53874151	     -5.82710227	      3.63513471	      1.08394432	      0.93245650	      0.50509739	      8.68619753	      3.81230128	    -19.98903132	     12.52589820	     12.52589820	      9.24805372	      1.39649511	     -6.94337562	     33.51390376	    -13.52131969	      0.64981368	     61.79388375	     61.79388375	      9.09626623	    -18.34412625	     11.84857063	    -10.05698309	      8.30905978	      4.54215248	     25.62148157	    -14.85767474	     -5.72685112	     39.76663038	     45.47249700	      0.00000000	      0.00000000	      1.62081634	     -7.45954995	     -0.01122812	     35.89950231	     45.38943326	      0.00000000	      0.00000000
     52.38428571	     -3.59512282	     -5.82057001	      3.79782724	      1.08264020	      0.93251611	      0.50533879	      7.82950435	      4.01617479	    -19.94799971	     11.74992897	     11.74992897	      9.28420393	      1.45913562	     -7.26913621	     34.46001209	    -13.23495889	      0.80764421	     59.46583900	     59.46583900	      9.01214107	    -18.35245997	     12.35255365	    -10.17712479	      8.17048504	      4.96768382	     27.08783676	    -15.54785619	     -4.86803880	     43.03688541	     45.33716651	      0.00000000	      0.00000000	      0.91630631	     -7.28334606	      0.82900600	     33.21467200	     45.31235188	      0.00000000	      0.00000000
     52.39535714	     -3.67058081	     -5.82875637	      3.96973012	      1.08134003	      0.93241661	      0.50545038	      7.01386859	      4.21611945	    -19.94414779	     11.01941470	     11.01941470	      9.47894877	      1.61742723	     -7.22437214	     35.28461015	    -12.93888589	      0.93895646	     56.88420901	     56.88420901	      8.85681311	    -18.38509570	     12.80528031	    -10.26443948	      8.04131827	      4.81156942	     29.42232707	    -15.48937864	     -4.91688682	     44.73537283	     45.29430039	      0.00000000	      0.00000000	     -0.55007540	     -7.25685782	      1.08882918	     32.07395553	     45.26093863	      0.00000000	      0.00000000
     52.40642857	     -3.75057750	     -5.94207690	      4.16382821	      1.08010128	      0.93209481	      0.50542232	      6.15732115	      4.52667821	    -20.07130420	     10.18395795	     10.18395795	      9.51882290	      1.92603167	     -7.56010424	     36.03501022	    -12.74118241	      1.07882561	     54.12421552	     54.12421552	      8.74830298	    -18.26400800	     13.17655644	    -10.36529334	      8.07809077	      5.16945688	     30.89457549	    -16.12876424	     -4.44411572	     48.20719988	     45.17987267	      0.00000000	      0.00000000	     -1.29770773	     -7.10554249	      2.08272168	     29.84005338	     45.14339426	      0.00000000	      0.00000000
     52.41750000	     -3.91905919	     -5.94702731	      4.30082559	      1.07885779	      0.93159301	      0.50528686	      5.48528349	      4.68131551	    -20.04377479	      9.54374362	      9.54374362	      9.76753179	      2.09523205	     -7.55988451	     36.67073823	    -12.41544107	      1.11394708	     51.08466318	     51.08466318	      8.60374403	    -18.16815026	     13.60347992	    -10.33023558	      7.93510816	      5.13563510	     33.10575197	    -16.14719112	     -4.56382514	     49.75708904	     45.14493989	      0.00000000	      0.00000000	     -2.67144943	     -7.05766551	      2.28255799	     29.01461430	     45.09635069	      0.00000000	      0.00000000
     52.42857143	     -4.04095196	     -6.02735687	      4.49331429	      1.07772571	      0.93104667	      0.50493608	      4.67172201	      4.92956347	    -20.14731188	      8.73858437	      8.73858437	      9.93486031	      2.43624006	     -7.57927575	     37.11980473	    -12.09958994	      1.22238156	     47.78217323	     47.78217323	      8.50116585	    -17.90677409	     13.91674036	    -10.35678700	      7.93138578	      4.83284849	     35.30189473	    -15.95073015	     -4.60414192	     51.82396262	     45.08813018	      0.00000000	      0.00000000	     -4.08241260	     -7.02894820	      2.55174765	     28.03769370	     45.03846202	      0.00000000	      0.00000000
     52.43964286	     -4.15222870	     -6.13962467	      4.73877179	      1.07668019	      0.93028964	      0.50442145	      3.81794383	      5.21260653	    -20.36247429	      7.88222916	      7.88222916	     10.11758885	      2.93731593	     -7.69015620	     37.48843179	    -11.76965309	      1.39881203	     44.39864733	     44.39864733	      8.29226567	    -17.48931866	     13.95870761	    -10.39289039	      7.98715017	      4.54403664	     37.26629734	    -15.81225666	     -4.55562714	     54.43218765	     45.00977959	      0.00000000	      0.00000000	     -5.44141831	     -6.92797695	      2.91699981	     27.08169772	     44.96702083	      0.00000000	      0.00000000
     52.45071429	     -4.35565359	     -6.29343434	      4.94684345	      1.07571458	      0.92923122	      0.50373422	      3.09583304	      5.48013222	    -20.82904777	      7.10821614	      7.10821614	     10.26201392	      3.81494951	     -8.11940928	     37.77004490	    -11.50203174	      1.46326173	     40.77304562	     40.77304562	      7.65761025	    -16.81591012	     12.57465811	    -10.38785049	      8.09334294	      5.00525969	     38.15538383	    -16.67687876	     -4.29805257	     59.12414663	     44.86844613	      0.00000000	      0.00000000	     -6.40322160	     -6.86760505	      3.93465890	     26.24606245	     44.81293664	      0.00000000	      0.00000000
     52.46178571	     -4.50789035	     -6.38178052	      5.12385341	      1.07485496	      0.92818169	      0.50293713	      2.38661566	      5.67400656	    -20.98468760	      6.50130877	      6.50130877	     10.54758310	      4.23059708	     -8.23115459	     37.80356846	    -11.15833884	      1.50833764	     37.02763833	     37.02763833	      7.18556638	    -15.89491132	     11.50924165	    -10.38752420	      8.12169838	      5.21893304	     39.61002611	    -17.02822724	     -4.51762573	     62.35674139	     44.82498525	      0.00000000	      0.00000000	     -7.54487114	     -6.94721065	      5.34932874	     25.73380608	     44.60693220	      0.00000000	      0.00000000
     52.47285714	     -4.72946382	     -6.44222215	      5.28203263	      1.07409356	      0.92694354	      0.50201827	      1.81393558	      5.80451002	    -21.03307902	      6.03785608	      6.03785608	     10.87406649	      4.42601193	     -8.30665963	     37.84914897	    -10.79932361	      1.46841337	     33.43553115	     33.43553115	      7.30548982	    -14.43962584	     11.88120807	    -10.23422651	      8.10220095	      5.11985567	     41.66205146	    -16.92493255	     -4.63306843	     63.86921585	     44.79287843	      0.00000000	      0.00000000	     -8.80047260	     -6.85066155	      5.53496479	     25.24522652	     44.56175293	      0.00000000	      0.00000000
     52.48392857	     -4.84892954	     -6.61383264	      5.48781152	      1.07361955	      0.92561400	      0.50091973	      1.04629795	      6.08019841	    -21.27370783	      5.42834363	      5.42834363	     11.18196200	      4.93614366	     -8.35781443	     37.75971641	    -10.56231240	      1.38556669	     30.05053852	     30.05053852	      7.51401641	    -12.71746858	     12.05567275	    -10.23112978	      8.26670790	      4.69971727	     43.55955556	    -16.56814158	     -4.63607393	     66.29309898	     44.73021562	      0.00000000	      0.00000000	    -10.24064371	     -6.75271177	      5.81053311	     24.89626823	     44.50249929	      0.00000000	      0.00000000
     52.49500000	     -5.01477635	     -6.67385760	      5.61801156	      1.07330846	      0.92419825	      0.49977120	      0.42516461	      6.18611175	    -21.37113368	      5.06334862	      5.06334862	     11.58048610	      5.25194079	     -8.42289567	     37.57465436	    -10.26822136	      1.08456860	     26.82183159	     26.82183159	      7.60247407	    -10.89703027	     12.40533459	    -10.12807680	      8.23983091	      4.62067026	     45.23996913	    -16.48063410	     -4.66648236	     68.25932657	     44.68099034	      0.00000000	      0.00000000	    -11.52473397	     -6.69954890	      5.97247116	     24.67185964	     44.46149716	      0.00000000	      0.00000000
     52.50607143	     -5.14365410	     -6.79667473	      5.76761787	      1.07323491	      0.92263251	      0.49843012	     -0.22428924	      6.34259120	    -21.53676782	      4.74402488	      4.74402488	     12.02291498	      5.65556220	     -8.38895253	     37.39680103	    -10.05206831	      0.66631134	     24.07220056	     24.07220056	      7.76011875	     -9.00999519	     12.73978233	    -10.06519483	      8.34375970	      4.44562821	     46.75833916	    -16.31902859	     -4.64660510	     70.83266802	     44.61450188	      0.00000000	      0.00000000	    -12.81609122	     -6.60184313	      6.16884116	     24.69471493	     44.41923247	      0.00000000	      0.00000000
     52.51714286	     -5.30293475	     -6.87060981	      5.85694573	      1.07336599	      0.92099516	      0.49701919	     -0.76433159	      6.40840083	    -21.56132839	      4.61471247	      4.61471247	     12.52137177	      5.79483517	     -8.37258271	     37.17148802	     -9.80405749	      0.11469347	     21.66524443	     21.66524443	      7.77700998	     -7.49503040	     13.17229996	     -9.92387049	      8.34657064	      4.42960551	     48.20859125	    -16.28489349	     -4.69346626	     72.68189464	     44.57046373	      0.00000000	      0.00000000	    -13.98652001	     -6.54797532	      6.27354598	     24.61334557	     44.39126387	      0.00000000	      0.00000000
